<svg width="385" height="500" viewBox="0 0 385 500" fill="none" xmlns="http://www.w3.org/2000/svg">
<g clip-path="url(#clip0_3_132)">
<path d="M341.56 83.71C340.33 82.23 340.55 79.67 338.11 79.09C335.87 77.72 333.91 76.06 332.68 73.68C329.3 70.17 325.91 66.65 322.53 63.14C319.63 62.11 317.99 59.32 315.32 57.97C313.33 55.79 311.54 53.39 309.32 51.49C303.02 46.12 297.73 39.6 290.66 35.12C288.73 33.9 286.97 32.48 285.35 30.87C278.99 27.38 271.74 25.6 266.06 20.81C255.76 17.18 245.74 12.67 235.46 9.18C228.31 6.75 220.79 4.54 213.19 2.95C208.65 2 203.67 2.9 199.41 0.289997C197.63 -0.800003 196.33 1.48 194.54 1.54C187.46 1.81 180.35 2.47 173.34 2.7C165.79 2.94 159.09 4.1 152.71 7.95C151.79 8.51 150.44 8.67 149.33 8.56C138.48 7.44 128.93 11.86 119.51 16.04C116.55 17.35 113.67 16.83 110.87 17.94C102.47 21.29 94.56 25.95 86.05 28.74C74.37 32.57 66.36 41.81 55.77 47.14C50.59 49.75 48.65 56.18 44.28 60.09C39.57 64.3 37.09 70.52 31.85 74.29C29.1 76.27 26.05 77.88 23.47 80.06C19.43 83.47 17.7 88.66 14.39 92.66C12.15 96.86 8.93002 100.44 6.79001 104.71C6.53 105.29 6.42999 105.92 6.35001 106.55L6.51001 106.67C5.06 109.12 4.62003 111.76 4.70001 114.59C4.75 116.27 5.20001 118.11 3.81 119.56C3.72 124.68 3.45999 129.8 3.59 134.92C3.72 140.24 2.51001 145.2 0.690002 150.13C-0.450012 153.22 0.0600281 156.49 0.420013 159.7C2.23001 161.74 0.110016 164.77 2.21002 166.74C3.48001 170.73 3.64001 174.87 3.97 179C5.07999 180.54 4.64001 182.31 4.74002 184C4.99002 188.34 6.65002 192.38 7.48001 196.6L7.5 196.59C8.98001 198.02 7.37 200.53 9.31 201.8C10.37 203.68 11.44 205.56 12.5 207.44C14.44 208.6 12.68 211.22 14.48 212.44H14.51C16.02 213.86 14.47 216.32 16.28 217.64C19.85 223.48 21.63 230.23 25.6 235.87C26.24 236.77 25.33 238.23 26.54 239.03C28.55 240.11 26.7 242.8 28.59 243.93C29.32 249.25 34.63 251.31 36.85 255.56C40.18 261.92 43.68 268.12 45.53 275.26C47.03 281.01 50.7 286.13 52.23 291.99C54.71 301.45 59.29 309.99 63.39 318.76C63.97 319.99 63.65 321.64 63.75 323.09C64.82 325.5 65.06 327.9 63.64 330.27C62.47 333.67 58.63 335.03 57.67 338.97C57.03 341.59 56.15 344.61 57.08 346.49C60.39 353.17 56.54 357.54 53.15 362.26C52.48 363.19 51.9 364.19 51.28 365.15C50.36 367.15 48.82 368.78 48 370.83C47.14 375.33 50.59 379.23 49.63 383.91C49.16 386.18 48.91 388.27 47.41 390.12C41.77 397.12 41.43 405.7 41.13 414.01C41.02 416.98 43.15 420.13 42.41 423.5C41.27 425.83 41.27 428.15 42.46 430.45L42.52 430.37C44.83 432.33 46.53 434.76 47.86 437.46C51.77 440.14 54.45 443.85 56.61 447.99C59.19 451.06 58.74 455.12 60.09 458.6L60.05 458.54C61.3 460.31 62.55 462.07 63.56 463.99C67.6 468.44 69.1 474.35 72.32 479.27C73.5 480.52 75.1 481.35 75.98 482.91C83.36 487.13 91.2 490.36 99.07 493.53C100.24 495.47 102.8 493.78 104.08 495.43C106.07 497.37 109.09 495.28 111.09 497.21C117.55 499.63 124.02 500.09 130.51 497.28C132.93 496.21 135.37 495.2 137.64 493.82C140.27 493.7 141.54 491.9 142.87 489.92C147.12 483.61 152.41 480.11 160.66 479C167.86 478.03 176.01 479.9 182.5 474.61C185.27 472.35 188.02 470.35 189.68 466.9C191.14 463.86 194.43 462.17 197.12 460.12C199.05 458.95 197.29 456.33 199.11 455.12C200.01 450.16 198.37 444.99 200.58 440.09C203.05 434.61 205.28 429.07 209.63 424.66C211.81 422.45 213.58 419.81 211.41 416.5C209.88 414.75 210.65 412.63 210.48 410.66C210.33 408.96 210.81 407.16 209.66 405.62C209.66 405.09 209.65 404.56 209.65 404.02C208.24 401.69 208.23 399.37 209.66 397.05C210.33 395.28 211.59 393.94 212.87 392.61C216.71 388.59 218.41 384.25 215.29 378.96C214.81 378.15 214.97 376.97 214.84 375.96C213.53 373.64 213.51 371.32 214.84 368.99C218.5 362.67 224.89 359.38 230.42 355.17C234.04 352.41 237.95 350.02 241.86 347.68C246.63 344.82 252.28 344.25 257.31 341.74C262.89 338.95 267.72 335.21 272.92 331.96C280.15 327.44 288.45 325.41 296.01 321.66C299.88 319.74 302.85 316.68 306.49 314.52C308.37 312.42 311.43 314.63 313.35 312.66C314.75 311.04 317.24 312.59 318.6 310.86C323.02 306.68 328.17 303.36 332.41 298.94C333.5 297.81 334.58 296.65 335.43 295.39C339.14 289.89 345.26 287.54 350.26 283.73C352.02 282.39 353.92 281.26 355.76 280.03C359.75 277.03 361.53 272.19 365.08 268.82C365.42 268.25 365.77 267.69 366.11 267.12C368.66 263.91 369.55 259.82 371.84 256.47C373.02 253.63 374.53 250.91 374.93 247.8C376.97 245.3 375.37 241.69 377.57 239.24C378.85 236.52 380.35 233.85 379.86 230.67C379.77 229.19 379.43 227.69 380.27 226.35C381.08 227.84 380.45 229.37 380.57 230.85C380.68 232.2 380.43 233.74 382.29 234.2C383.63 234.76 383.34 233.59 383.33 233.08C382.93 218.61 384.82 204.16 383.67 189.68C382.11 188.2 383.49 185.82 382.03 184.31C381.96 174.23 378.69 164.59 377.82 154.58C377.53 151.27 377.1 147.42 375.03 144.31C373.4 142.7 374.41 140.5 373.78 138.66C371.74 136.03 371.18 132.82 370.33 129.73C366.09 121 361.69 112.36 357.19 103.76C355.2 97.98 350.82 93.95 346.84 89.62C344.53 88.16 342.41 86.5 341.56 83.71Z" fill="#FDD030"/>
<path d="M357.21 103.77C356.4 108.21 359.38 111.46 361.17 114.9C363.85 120.04 365.71 125.67 369.57 130.16C370.78 128.95 370.56 127.7 369.69 126.43C368.11 119.9 364.56 114.32 361.07 108.73C359.98 106.97 359.94 104.29 357.21 103.77Z" fill="#DDD6AF"/>
<path d="M378.56 230.19C378.86 233.29 376.94 235.88 376.58 238.83C375.83 240.6 374.79 242.43 377.57 243.43C380.05 240.83 381.14 237.51 382.31 234.22C382.02 230.2 382.78 226.13 381.58 221.88C380.08 222.54 380.47 223.84 380.15 224.77C378.65 226.29 379.98 228.64 378.56 230.19Z" fill="#FAF8E8"/>
<path d="M266.06 20.82C267.16 24.59 270.87 25.97 273.63 27.14C277.36 28.72 281 30.86 285.1 31.6C285.67 31.05 285.76 30.5 285.11 29.94C279.22 25.94 272.83 22.99 266.06 20.82Z" fill="#E7DDA7"/>
<path d="M7.47 105.55C10.56 101.68 13.83 97.9 14.39 92.67C11.11 94.21 8.87002 96.72 7.55002 100.08C6.18002 101.89 6.06 103.71 7.47 105.55Z" fill="#EDE09A"/>
<path d="M7.49001 196.59C8.18001 190.84 4.98001 185.59 5.30001 179.87C5.31001 179.6 4.44 179.28 3.98 178.98C2.72 184.67 5.4 189.91 5.88 195.41C5.95 196.24 6.76001 196.46 7.49001 196.59Z" fill="#79682B"/>
<path d="M365.1 268.82C363.14 268.51 361.81 269.97 361.44 271.24C360.39 274.79 356.05 276.1 355.78 280.04C361.12 278.15 363.55 273.85 365.1 268.82Z" fill="#C5BD8E"/>
<path d="M369.7 126.43C369.66 127.67 369.62 128.91 369.58 130.16C369.44 133.62 370.51 136.61 373.06 139.02C373.72 138.33 373.72 137.58 373.26 136.78C373.32 132.9 371.83 129.55 369.7 126.43Z" fill="#C0B98C"/>
<path d="M3.82001 119.57C4.20001 119.37 4.88 119.2 4.91 118.96C5.41 114.86 6.89002 110.89 6.52002 106.69C3.41002 107.88 3.90001 110.79 3.63001 113.17C3.38001 115.26 3.73001 117.43 3.82001 119.57Z" fill="#F0DE85"/>
<path d="M60.13 458.6C59.69 454.83 61.94 450.18 56.65 447.99C56.7 451.89 57.58 455.52 60.13 458.6Z" fill="#E7E3BD"/>
<path d="M371.87 256.48C368.01 258.98 367.03 263.03 366.14 267.12C370.05 264.66 371.04 260.61 371.87 256.48Z" fill="#AFA574"/>
<path d="M47.9 437.47C48.16 433.57 47.36 430.48 42.56 430.38C42.19 434.35 45.02 435.93 47.9 437.47Z" fill="#E0DDBB"/>
<path d="M315.32 57.97C316.98 60.73 318.6 63.54 322.53 63.14C320.78 60.51 319.02 57.89 315.32 57.97Z" fill="#C6B874"/>
<path d="M209.69 405.63C210.25 409.26 207.81 413.37 211.45 416.5C211.26 412.82 213.12 408.8 209.69 405.63Z" fill="#EFE08C"/>
<path d="M377.57 243.43C376.12 242.14 377 240.34 376.58 238.83C373.3 241.33 375.41 244.8 374.95 247.81C376.48 246.74 377.93 245.62 377.57 243.43Z" fill="#EEDA77"/>
<path d="M341.56 83.71C341.17 87.61 343.2 89.35 346.86 89.63C345.8 87.03 343.88 85.19 341.56 83.71Z" fill="#BFB789"/>
<path d="M285.12 29.94C285.12 30.49 285.11 31.04 285.11 31.6C286.45 33.57 287.86 35.44 290.66 35.12C289.27 32.9 287.72 30.86 285.12 29.94Z" fill="#948D65"/>
<path d="M332.68 73.68C332.66 77.31 334.62 78.96 338.11 79.09C337 76.59 335.15 74.83 332.68 73.68Z" fill="#C9BF86"/>
<path d="M137.68 493.83C134.78 493.9 132.22 494.69 130.55 497.29C133.55 497.41 136.25 496.93 137.68 493.83Z" fill="#AD912D"/>
<path d="M48.03 370.83C50.2 369.56 51.84 367.98 51.31 365.15C48.47 366.04 47.37 367.93 48.03 370.83Z" fill="#E4DCB2"/>
<path d="M111.14 497.22C109.48 493.98 106.52 495.81 104.13 495.44C105.85 498.45 108.77 496.75 111.14 497.22Z" fill="#A78C2D"/>
<path d="M63.61 463.99C63.81 461.29 63.13 459.16 60.1 458.54C59.81 461.29 60.84 463.2 63.61 463.99Z" fill="#F3F0CD"/>
<path d="M42.5 430.45C42.48 428.13 42.47 425.81 42.45 423.49C39.96 425.83 39.53 428.16 42.5 430.45Z" fill="#9E945F"/>
<path d="M209.69 397.06C206.75 399.38 206.8 401.71 209.68 404.03C209.68 401.71 209.69 399.39 209.69 397.06Z" fill="#C6A62E"/>
<path d="M214.87 369C212.26 371.32 211.93 373.64 214.87 375.97C214.87 373.64 214.87 371.32 214.87 369Z" fill="#C4B156"/>
<path d="M2.22003 166.74C1.71003 164.37 3.63002 161.39 0.43002 159.7C0.90002 162.08 -1.14997 165.09 2.22003 166.74Z" fill="#7A682B"/>
<path d="M373.27 136.78C373.2 137.52 373.13 138.27 373.07 139.01C373.33 140.93 372.41 143.3 375.07 144.32C374.47 141.8 376.41 138.69 373.27 136.78Z" fill="#9E997D"/>
<path d="M313.37 312.67C311.01 313.02 308.11 311.39 306.51 314.53C308.8 313.9 311.78 315.85 313.37 312.67Z" fill="#63572A"/>
<path d="M63.67 330.26C66.36 327.91 66.57 325.52 63.78 323.08C63.74 325.47 63.7 327.87 63.67 330.26Z" fill="#70612A"/>
<path d="M7.47003 105.55C7.50003 103.73 7.52005 101.9 7.55005 100.08C3.95005 101.65 5.67004 104.2 6.35004 106.56C6.73004 106.23 7.10003 105.89 7.47003 105.55Z" fill="#83837F"/>
<path d="M318.62 310.86C316.78 311.21 314.42 310.03 313.37 312.66C315.25 312.44 317.69 313.86 318.62 310.86Z" fill="#63572A"/>
<path d="M382.06 184.31C382.3 186.2 380.75 188.63 383.7 189.68C383.35 187.84 384.93 185.4 382.06 184.31Z" fill="#917B2B"/>
<path d="M199.15 455.13C196.46 455.99 197.43 458.31 197.16 460.13C200.03 459.34 198.93 456.98 199.15 455.13Z" fill="#907A2E"/>
<path d="M16.28 217.64C15.72 215.9 17.36 213.4 14.51 212.44C14.98 214.21 12.88 216.86 16.28 217.64Z" fill="#9B832C"/>
<path d="M14.49 212.44C14.07 210.68 15.68 208.11 12.51 207.44C12.89 209.21 11.73 211.6 14.49 212.44Z" fill="#90792C"/>
<path d="M76.03 482.91C76.32 480.18 74.62 479.45 72.37 479.27C72.33 481.74 73.95 482.55 76.03 482.91Z" fill="#D7CC88"/>
<path d="M104.12 495.43C103.22 492.79 100.89 493.88 99.11 493.53C99.94 496.38 102.24 495.37 104.12 495.43Z" fill="#A78C2D"/>
<path d="M9.32001 201.79C8.65001 200.08 10.38 197.53 7.51001 196.58C7.77001 198.44 6.03001 200.99 9.32001 201.79Z" fill="#806D2B"/>
<path d="M28.6 243.93C28.16 242.19 29.58 239.68 26.55 239.03C27.1 240.72 25.55 243.29 28.6 243.93Z" fill="#AF912D"/>
<path d="M26.71 210.81C27.91 214.3 29.11 217.8 30.31 221.29C32.13 223.31 30.03 226.33 32.1 228.29C35.7 230.51 37.57 233.92 39.41 237.63C41.99 242.81 45.28 247.66 48.51 252.49C49.48 253.95 50.03 255.37 50.6 256.98C51.76 260.28 52.82 263.67 55.01 266.55C57.83 270.26 60.73 273.95 61.21 278.88C61.3 279.84 61.63 281.02 62.28 281.66C69.56 288.83 70.76 299.41 76.76 307.29C79.4 310.75 78.8 315.2 80.33 319C80.65 319.79 80.98 320.57 81.31 321.36C83.12 323.41 81.02 326.44 83.09 328.42C84.08 330.17 84.57 331.9 82.86 333.53C79.35 336.48 75.97 339.61 72.27 342.32C70.07 343.93 70.25 345.88 71.06 347.63C72.96 351.7 74.88 355.74 75.99 360.11C77.18 361.89 77.28 363.65 75.93 365.4C73.04 368.2 70.21 371.08 67.22 373.78C65.64 375.2 65.04 376.82 65.29 378.82C66.42 387.85 63.85 395.78 58.14 402.76C54.89 406.73 54.97 410.33 57.8 414.84C59.97 418.3 62.28 422.22 61.9 426.81C61.75 428.62 63.35 429.41 64.38 430.53C65.38 431.62 67.09 432.14 67.18 433.98C69 436.04 67.12 438.95 68.8 441.04C68.64 443.72 69.15 446.15 71.43 447.89C73.23 449.26 71.93 451.47 72.9 453.09C78.99 463.24 86.33 472.16 96.94 477.92C98.97 479.8 102.03 477.69 104.02 479.73C106.41 482.88 109.89 480.71 112.76 481.52C115.18 482.65 117.61 482.67 120.02 481.5C121.93 480.47 123.97 479.53 126.12 479.65C133.33 480.05 138 475.89 142.29 470.99C143.66 469.42 144.92 467.76 146.23 466.14C147.13 465.03 147.95 464.48 149.49 465.47C153.63 468.13 157.85 467.73 162.11 465.48C165.22 463.83 168.62 462.82 171.84 461.45C176.16 459.61 177.75 455.06 180.21 451.44C182.59 447.94 184.15 444.06 183 439.77C181.28 433.37 185.74 429.14 189.01 425.33C194 419.51 194.58 413.07 192.96 406.74C191.59 401.4 194 397.85 196.43 394.49C197.86 392.51 199.67 390.63 200.96 388.43C201.81 386.6 202.22 384.8 200.6 383.14C199.19 382.19 200.64 380.23 199.24 379.27C197.24 378.09 198.97 375.5 197.3 374.2C196.01 371.89 195.84 369.59 197.39 367.31L197.37 367.28C198.62 365.43 201.25 367.17 202.5 365.31C208.22 358.62 215.05 352.98 221.82 347.58C233.52 338.26 246.48 330.73 260.4 324.85C268.35 321.49 276.6 318.92 284.41 315.37C288.96 313.3 293.93 311.38 297.58 307.55C298.93 305.7 301.46 307.28 302.92 305.73C308.07 303.54 312.85 300.66 317.46 297.56C319.32 296.31 320.74 294.19 321.94 292.21C324.76 287.57 329.97 285.67 333.44 281.73C343.01 270.87 351.82 259.57 357.21 245.97C357.41 245.45 357.31 244.81 357.34 244.23C358.89 242.73 357.53 240.36 358.94 238.82C359 238.28 359.06 237.75 359.12 237.21C360.63 235.7 359.26 233.32 360.75 231.8L360.8 231.83C362.73 229.82 360.7 226.83 362.55 224.8V224.78C364.51 222.78 362.44 219.77 364.32 217.75C365.54 215.42 365.9 212.97 365.98 210.32C366.12 206.01 365.53 201.61 367.36 197.41C368.36 195.13 366.39 192.98 366.34 190.67C366.25 185.71 366.1 180.76 365.97 175.8C364.35 173.62 366.14 170.7 364.4 168.54C363.17 158.64 359.86 149.36 356.98 139.86C353.69 129.02 348.42 119.41 343.1 109.76C339.94 104.03 337.96 97.1 331.24 93.87C330.53 93.53 329.59 92.68 329.58 92.05C329.51 87.17 325.62 85.62 322.45 83.31C320.9 82.18 319.27 81.06 318.35 79.14C314.64 71.42 306.75 68.2 300.68 63.05C292.19 55.85 282.47 50.19 274.52 42.3C273.36 40.17 270.66 42 269.34 40.29C261.95 38.53 257.18 31.99 250.04 29.77C248.59 28.1 246.14 29.54 244.63 28.05C240.57 27.82 236.98 25.92 233.45 24.3C228.32 21.94 222.7 23.07 217.52 21.18C209.38 18.21 200.77 17.88 192.2 16.87C181.92 15.66 172.6 17.33 163.09 20.47C160.16 21.44 156.74 20.92 153.54 21.08C150.66 22.49 147.59 21.54 144.62 21.82C142.8 21.99 140.85 21.37 139.22 22.7C138.7 22.73 138.18 22.77 137.66 22.8C135.51 24.5 132.55 22.61 130.43 24.45C128.82 24.97 127.48 25.94 125.71 26.31C115.45 28.44 105.95 33.14 97.07 38.13C87.6 43.45 78.24 49.51 70.41 57.62C66.48 61.69 61.21 64.65 56.71 68.32C50.19 73.62 44.57 79.62 39.62 86.54C32.67 96.27 29.41 107.73 23.37 117.82C21.39 119.02 23.08 121.58 21.47 122.92C21.42 123.43 21.37 123.94 21.31 124.46C19.87 125.97 21.34 128.43 19.56 129.84L19.53 129.82C18.08 131.32 19.59 133.77 17.81 135.16C15.89 138.07 16.15 141.38 16.68 144.47C18.45 154.78 18.15 165.06 16.71 175.35C16.35 177.96 18.14 180.08 17.92 182.6C19.47 184.12 18.13 186.49 19.54 188.05C19.6 188.56 19.67 189.08 19.73 189.59C21.22 191.1 19.84 193.49 21.37 194.98C23.05 196.41 21.61 198.84 23.07 200.34C23.63 202.1 24.19 203.87 24.75 205.63C26.75 206.86 25.06 209.45 26.71 210.81Z" fill="#1153A2"/>
<path d="M139.25 22.7C143.13 22.67 147 22.67 150.88 22.61C152.01 22.59 153.26 22.62 153.58 21.09C149.68 21.07 145.79 21.05 141.89 21.02C140.64 21.01 139.58 21.28 139.25 22.7Z" fill="#BAB045"/>
<path d="M120.05 481.47C117.63 481.48 115.21 481.49 112.79 481.49C115.21 484.15 117.63 484.2 120.05 481.47Z" fill="#6E7F4E"/>
<path d="M104.05 479.7C102.38 476.4 99.38 478.32 96.97 477.89C98.67 481.07 101.67 479.15 104.05 479.7Z" fill="#597865"/>
<path d="M364.36 217.74C361.45 219.5 362.89 222.36 362.59 224.77C365.62 223.04 364.07 220.16 364.36 217.74Z" fill="#778858"/>
<path d="M68.82 441.02C68.72 438.56 70.02 435.79 67.2 433.96C67.45 436.38 66.06 439.18 68.82 441.02Z" fill="#A8A858"/>
<path d="M32.1 228.29C31.63 225.92 33.1 223.06 30.31 221.29C30.68 223.68 28.62 226.69 32.1 228.29Z" fill="#7B8749"/>
<path d="M362.59 224.79C359.72 226.56 361.11 229.4 360.84 231.82C363.82 230.07 362.36 227.22 362.59 224.79Z" fill="#798757"/>
<path d="M130.46 24.45C132.92 24.13 135.8 25.61 137.69 22.8C135.2 23.02 132.27 21.3 130.46 24.45Z" fill="#BAB045"/>
<path d="M364.44 168.54C364.55 171.05 363.44 173.82 366.01 175.8C365.9 173.29 367.61 170.38 364.44 168.54Z" fill="#A4A040"/>
<path d="M197.42 367.29C194.3 369.54 194.77 371.85 197.33 374.18C197.36 371.88 197.39 369.59 197.42 367.29Z" fill="#899457"/>
<path d="M83.1 328.41C82.77 325.99 84.48 323.06 81.32 321.35C81.85 323.72 79.75 326.75 83.1 328.41Z" fill="#ADA94B"/>
<path d="M82.87 333.53C85.5 331.94 85.77 330.25 83.1 328.42C83.02 330.12 82.95 331.82 82.87 333.53Z" fill="#ADA94B"/>
<path d="M302.94 305.71C301.04 305.97 298.56 304.51 297.6 307.53C299.47 307.17 301.97 308.69 302.94 305.71Z" fill="#52766E"/>
<path d="M75.95 365.39C79.1 363.66 78.32 361.89 76.01 360.1C75.99 361.86 75.97 363.62 75.95 365.39Z" fill="#899563"/>
<path d="M202.53 365.29C200.72 365.68 198.22 364.3 197.4 367.26C199.23 366.91 201.69 368.2 202.53 365.29Z" fill="#758551"/>
<path d="M23.12 200.33C22.94 198.42 24.08 196.09 21.42 194.97C21.67 196.85 20.18 199.29 23.12 200.33Z" fill="#899252"/>
<path d="M21.41 194.97C21.22 193.06 22.44 190.73 19.77 189.58C19.94 191.49 18.47 193.9 21.41 194.97Z" fill="#899252"/>
<path d="M197.33 374.18C197.57 376.03 196.28 378.45 199.27 379.25C198.88 377.46 200.13 375.04 197.33 374.18Z" fill="#899457"/>
<path d="M200.63 383.12C200.75 384.88 200.87 386.65 200.99 388.41C203.37 386.47 203.68 384.68 200.63 383.12Z" fill="#95974A"/>
<path d="M17.85 135.15C20.82 134.14 19.45 131.74 19.57 129.81C16.71 130.86 18.3 133.33 17.85 135.15Z" fill="#668067"/>
<path d="M19.6 129.83C22.6 128.82 21.18 126.38 21.35 124.46C18.53 125.52 19.92 127.95 19.6 129.83Z" fill="#57766C"/>
<path d="M244.66 28.05C245.75 30.88 248.15 29.57 250.07 29.77C249 26.91 246.58 28.26 244.66 28.05Z" fill="#B7AF46"/>
<path d="M21.5 122.92C24.14 121.97 22.97 119.6 23.4 117.82C20.25 118.58 21.73 121.07 21.5 122.92Z" fill="#7A8C59"/>
<path d="M358.98 238.81C356.28 239.97 357.52 242.3 357.38 244.22C360.09 243.06 358.89 240.75 358.98 238.81Z" fill="#5D7967"/>
<path d="M19.58 188.04C19.41 186.11 20.72 183.75 17.96 182.59C18.2 184.49 16.69 186.92 19.58 188.04Z" fill="#8A9351"/>
<path d="M360.79 231.79C358.06 232.94 359.32 235.29 359.16 237.2C362.05 236.1 360.55 233.69 360.79 231.79Z" fill="#5D7967"/>
<path d="M378.56 230.19C381.26 229.02 379.86 226.65 380.15 224.77C377.3 225.89 378.8 228.3 378.56 230.19Z" fill="#FAE581"/>
<path d="M269.37 40.29C270.39 42.77 272.68 41.98 274.55 42.3C273.79 39.14 271.29 40.47 269.37 40.29Z" fill="#B2AA45"/>
<path d="M26.71 210.81C26.4 208.96 27.98 206.41 24.8 205.62C25.24 207.42 23.93 209.87 26.71 210.81Z" fill="#6C825E"/>
<path d="M90.23 275.64C90.75 278.32 93.07 279.83 94.36 282.01C97.06 286.59 97.54 291.61 97.29 296.74C97.03 302.01 97.64 306.9 99.97 311.87C102.09 316.39 100.6 321.68 100.64 326.64C101.97 328.41 101.28 330.48 101.48 332.41C101.65 334.04 100.92 335.87 102.55 337.17C104.74 340.45 108.51 340.13 111.63 340.7C121.3 342.47 130.39 346.13 139.8 348.69C147.49 350.78 154.88 354.01 162.91 354.84C167.1 355.27 169.17 359.25 172.65 360.95C173.23 361.23 173.77 361.72 174.47 361.86C176.8 363.18 179.12 363.23 181.44 361.83C193.75 347.41 209.58 336.96 223.71 324.6C228.77 320.18 234.96 317.26 240.68 313.72C248.83 308.67 257.47 304.77 266.33 301.29C267.87 300.69 267.75 298.67 269.47 298.67C270.84 296.96 273.33 298.52 274.72 296.86C277.1 295.73 279.49 294.6 281.87 293.48C283.45 292.05 285.26 290.96 287.11 289.92C289.19 289.25 290.6 287.61 292.3 286.39C294.01 285.11 295.79 283.95 297.62 282.86C300.53 280.89 300.98 276.98 304.13 275.06C314.14 268.98 319.41 258.67 326.18 249.73C329.33 245.57 330.25 240.32 332.51 235.69C334.76 231.08 337.55 226.68 338.69 221.52C340 215.6 342.09 209.81 343.01 203.84C343.53 200.44 345.1 196.92 344.66 193.72C343.04 181.82 343.9 169.84 342.84 157.98C342.49 154.01 339.4 150.14 337.63 146.21C336.85 144.47 336.2 142.81 335.96 141.02C334.68 131.37 327.38 125.18 322.68 117.49C317.08 108.32 309.59 100.63 303.25 92.04C299.75 87.3 294.58 83.12 288.94 80.66C279.8 76.67 271.71 71.23 264.06 64.98C262.72 63.19 260.23 64.75 258.82 63.18V63.17C256.89 61.15 253.81 63.37 251.9 61.3L251.89 61.31C250.42 59.8 247.99 61.24 246.56 59.6V59.61C245.17 57.98 242.68 59.54 241.33 57.8L241.32 57.82C239.98 56.19 237.39 57.91 236.19 55.89C230.76 53.47 225.09 52.3 219.13 52.32C213.8 52.33 208.63 51.54 203.61 49.48C202.02 48.83 199.58 48.84 198.09 49.62C195.7 50.89 193.95 49.89 191.97 49.17C188.48 47.62 184.98 47.76 181.47 49.07C177.37 49.64 173.27 50.22 169.17 50.79C167.75 52.47 165.3 50.99 163.84 52.52C161.22 54.7 157.69 52.28 155.03 54.28C144.57 55.1 134.04 56.24 125.21 62.41C115.58 69.14 104.71 73.94 95.65 81.5C93.64 83.18 91.84 85.36 90.59 87.65C86.86 94.5 80.28 98.41 74.92 103.58C73.74 104.71 71.77 105.43 71.65 107.32C71.3 112.75 68.79 117.11 65.3 121.06C63.86 122.56 65.2 124.88 63.71 126.36C64.37 129.25 62.42 131.51 61.83 134.1C59.67 143.74 57.03 153.23 53.81 162.6C52.63 166.02 53.35 170.09 53.2 173.86C54.61 175.4 53.36 177.7 54.72 179.26C55.71 189.99 58.41 200.31 62.08 210.42C65.19 219 68.95 227.17 74.1 234.83C77.34 239.66 78.98 245.57 81.33 251C82.79 252.5 81.32 254.94 83.07 256.34C84.81 259.86 86.55 263.37 88.29 266.89C89.45 268.2 89.03 269.81 89.15 271.33C89.29 272.83 88.69 274.5 90.23 275.64Z" fill="#FDD030"/>
<path d="M111.18 360.11C107.43 357.02 102.9 359.36 98.85 358.37C97.08 357.19 95.32 357.18 93.56 358.38C92.26 360.72 92.29 363.07 93.54 365.42C93.64 366.14 93.58 366.94 93.88 367.57C95.84 371.66 95.7601 375.29 91.8301 378.28C91.2201 378.74 90.98 379.68 90.32 380.85C105.51 384.12 120.6 386.2 135.68 388.34C137.6 389.66 139.79 388.95 141.86 389.13C143.37 389.26 145 388.78 146.27 390.06C148.04 391.41 150.11 390.72 152.05 390.88C153.56 391.01 155.24 390.51 156.34 392.1C158.13 393.28 160.51 391.92 162.21 393.46C163.4 394 164.6 394.55 165.79 395.09C169.29 397.77 171.78 395.29 174.38 393.4C175.33 391.57 177.09 390.68 178.68 389.53C180.17 388.45 182.33 387.42 181.41 384.81C180.22 382.99 177.59 384.77 176.46 382.81C169.76 379.66 162.15 378.27 156.81 372.53C155.48 370.72 152.95 372.31 151.55 370.69C148.36 368.59 144.24 369.25 141.05 367.14C139.59 365.56 137.2 366.97 135.71 365.47C135.16 365.41 134.61 365.36 134.07 365.3C132.51 363.87 130.21 365.14 128.63 363.79C124.41 364.27 120.68 361.75 116.54 361.76C115.02 360.34 112.63 361.75 111.18 360.11Z" fill="#F49433"/>
<path d="M88.36 409.24C98.78 410.78 109.18 412.45 119.57 414.19C124.68 415.04 129.84 415.94 135.01 416.61C143.56 417.72 152.02 419.49 160.5 421.1C161.6 421.31 162.63 421.51 163.33 420.72C165.2 418.61 167.97 417.4 169.25 414.72C170.43 412.29 170.38 409.86 169.29 407.42C169.34 405.08 168.89 402.82 168.11 400.62C165.71 398.96 162.58 399.52 160.13 398C155.5 397.43 150.75 398.79 146.2 397.1C130.98 396.77 115.92 394.29 100.73 393.58C98.26 393.47 95.78 393.37 93.31 393.3C87.36 393.13 87.36 393.14 88.26 398.79C89.67 400.53 89.4 402.33 88.42 404.14C87.24 404.74 86.06 405.35 84.88 405.95C84.79 407.76 84.79 407.76 88.36 409.24Z" fill="#F49433"/>
<path d="M86.64 423.27C92.51 425.14 96.76 429.83 102.31 432.26C103.87 433.71 106.21 432.42 107.77 433.82C111.74 434.84 115.79 435.49 118.93 438.64C122.85 442.57 128.27 443.34 133.36 444.31C139.28 445.44 145.21 446.75 151.37 446.29C155.65 445.97 158.49 443.53 158.6 439.15C158.68 435.69 158.7 432.27 157.81 428.83C157.36 427.11 156.69 426.7 155.2 426.84C150.9 425.12 146.4 426.45 142.02 426.03C139.92 425.83 137.69 426.6 135.76 425.17C135.21 425.14 134.65 425.12 134.1 425.09C129.5 423.4 124.72 424.69 120.05 424.27C117.95 424.08 115.71 424.87 113.8 423.38C107.2 421.27 100.34 422.02 93.59 421.57C91.8 420.37 89.79 420.7 87.87 420.94C86.66 421.08 85.7 421.79 86.64 423.27Z" fill="#F39433"/>
<path d="M84.71 439.26C84.76 439.81 84.82 440.35 84.87 440.9C86.38 442.3 84.79 444.78 86.66 446.05C90.96 455.52 97.43 463.02 107.26 466.81C111.33 468.38 115.99 467.39 120.34 467.12C129.33 466.55 136.75 462.59 143.12 455.49C135.13 453.4 127.65 450.99 119.85 449.24C109.75 446.97 99.27 444.48 91.57 436.32C90.42 435.11 88.76 433.74 86.68 433.75C82.26 434.23 84.07 436.96 84.71 439.26Z" fill="#F39433"/>
<path d="M113.79 423.38C114.07 424.84 115.14 425.09 116.38 425.09C122.29 425.09 128.19 425.09 134.1 425.1C133.7 423.61 132.48 423.61 131.3 423.59C125.46 423.5 119.63 423.44 113.79 423.38Z" fill="#AD8152"/>
<path d="M135.75 425.17C136.06 426.61 137.13 426.85 138.37 426.85C143.98 426.85 149.59 426.85 155.2 426.85C154.88 425.32 153.67 425.36 152.52 425.35C146.93 425.28 141.34 425.23 135.75 425.17Z" fill="#AD8152"/>
<path d="M146.21 397.11C146.98 399.26 148.87 398.47 150.32 398.56C153.65 398.77 157 398.79 160.34 398.89C162.19 399.79 164.01 400.22 165.74 398.64C165.71 398.1 165.68 397.56 165.64 397.02L165.67 397.05C159.18 397.07 152.7 397.09 146.21 397.11Z" fill="#4F657D"/>
<path d="M86.64 423.27C88.3 420.04 91.41 422.72 93.58 421.56C91.18 419.56 86.61 419.19 81.83 420.68C82.83 422.75 84.28 423.82 86.64 423.27Z" fill="#727373"/>
<path d="M174.38 393.4C171.43 393.54 169.06 396.6 165.79 395.09C165.75 395.74 165.71 396.4 165.68 397.05L165.65 397.02C169.08 397.08 172.93 398.14 174.38 393.4Z" fill="#4F657D"/>
<path d="M157.06 391.62C153.83 388.59 149.89 390.44 146.27 390.05C148.58 393.25 152.04 391.14 154.88 391.91C155.68 392.31 156.41 392.31 157.06 391.62Z" fill="#8D775D"/>
<path d="M146.27 390.06C143.23 386.48 139.22 388.85 135.68 388.34C138.77 391.61 142.74 389.51 146.27 390.06Z" fill="#8D775D"/>
<path d="M181.48 49.07C184.98 49.1 188.48 49.14 191.98 49.17C189.52 46.55 184.13 46.49 181.48 49.07Z" fill="#50787C"/>
<path d="M102.55 337.18C101.61 333.72 103.63 329.73 100.64 326.64C100.61 329.24 100.56 331.85 100.57 334.45C100.58 335.79 100.65 337.17 102.55 337.18Z" fill="#507674"/>
<path d="M84.71 439.26C85.64 437.52 83.32 434.61 86.69 433.74C86.73 431.82 84.71 431.1 83.91 431.21C82.39 431.43 82.81 433.28 82.97 434.45C83.2 436.15 82.37 438.31 84.71 439.26Z" fill="#817566"/>
<path d="M90.23 275.64C89.49 272.75 91.54 269.25 88.31 266.91C88.93 269.83 86.4 273.43 90.23 275.64Z" fill="#59786A"/>
<path d="M155.04 54.29C158.03 53.99 161.47 55.92 163.85 52.53C160.9 53.05 157.45 51.05 155.04 54.29Z" fill="#6F8560"/>
<path d="M165.74 398.64C163.94 398.72 162.14 398.81 160.34 398.89C162.36 402.01 165.55 399.91 168.12 400.62C168.45 398.62 166.9 398.87 165.74 398.64Z" fill="#AE7E49"/>
<path d="M287.1 289.91C284.36 289.64 282.57 290.77 281.86 293.47C284.45 293.51 285.97 291.99 287.1 289.91Z" fill="#7F8D59"/>
<path d="M251.9 61.29C253.53 64.41 256.44 62.81 258.82 63.16C257.17 60.14 254.28 61.67 251.9 61.29Z" fill="#7F8E5B"/>
<path d="M169.3 407.43C169.29 409.86 169.27 412.3 169.26 414.73C172.41 412.31 171.71 409.87 169.3 407.43Z" fill="#AD8454"/>
<path d="M88.36 409.24C88.36 406.92 84.96 408.21 84.89 405.97C83.71 405.8 82.89 406.11 82.98 407.5C83.04 408.47 83.55 409.15 84.54 409.22C85.81 409.3 87.09 409.24 88.36 409.24Z" fill="#82705B"/>
<path d="M157.06 391.62C156.33 391.72 155.61 391.82 154.88 391.92C156.86 394.62 159.69 393.28 162.2 393.46C161.2 390.85 158.84 392.04 157.06 391.62Z" fill="#72706C"/>
<path d="M297.62 282.85C294.83 282.49 293.28 284.01 292.3 286.38C295.03 286.65 296.45 284.94 297.62 282.85Z" fill="#828E55"/>
<path d="M181.43 361.83C179.11 361.84 176.78 361.85 174.46 361.86C177.15 364.6 179.46 364.59 181.43 361.83Z" fill="#A9A246"/>
<path d="M93.54 365.42C93.55 363.07 93.55 360.73 93.56 358.38C90.53 360.72 90.97 363.06 93.54 365.42Z" fill="#556779"/>
<path d="M93.56 358.38C95.32 358.38 97.09 358.37 98.85 358.37C97.08 355.85 95.32 355.48 93.56 358.38Z" fill="#525F6D"/>
<path d="M111.18 360.11C112.29 362.83 114.59 361.74 116.53 361.76C115.36 359.25 113.09 360.24 111.18 360.11Z" fill="#7D6B5B"/>
<path d="M274.71 296.86C272.8 297 270.35 295.57 269.46 298.67C271.33 298.39 273.69 299.56 274.71 296.86Z" fill="#567871"/>
<path d="M128.62 363.8C129.81 366.57 132.15 365.17 134.06 365.31C132.83 362.74 130.56 363.84 128.62 363.8Z" fill="#6E6961"/>
<path d="M135.71 365.48C136.81 368.2 139.14 367.01 141.05 367.15C139.86 364.71 137.67 365.47 135.71 365.48Z" fill="#947E60"/>
<path d="M54.74 179.28C54.75 177.33 55.56 175.16 53.22 173.88C53.2 175.83 52.14 178.07 54.74 179.28Z" fill="#55725B"/>
<path d="M151.55 370.7C152.6 373.31 154.93 372.28 156.81 372.54C155.89 369.55 153.44 370.92 151.55 370.7Z" fill="#4A5F79"/>
<path d="M176.46 382.82C177.21 385.71 179.62 384.5 181.41 384.82C180.66 381.91 178.24 383.15 176.46 382.82Z" fill="#6B6A6A"/>
<path d="M83.09 256.36C82.52 254.58 84.28 252.04 81.35 251.02C81.61 252.9 79.93 255.42 83.09 256.36Z" fill="#5E7555"/>
<path d="M63.73 126.38C66.09 125.16 65.3 123 65.32 121.08C62.57 122.18 63.83 124.48 63.73 126.38Z" fill="#506B56"/>
<path d="M236.2 55.89C236.96 59.06 239.48 57.55 241.33 57.82C240.42 55.04 237.98 56.35 236.2 55.89Z" fill="#92974C"/>
<path d="M163.85 52.53C165.73 52.27 168.15 53.67 169.18 50.8C167.3 51.04 164.88 49.64 163.85 52.53Z" fill="#6F8560"/>
<path d="M88.43 404.16C91.05 402.3 90.78 400.52 88.27 398.81C88.32 400.59 88.38 402.37 88.43 404.16Z" fill="#A67C4C"/>
<path d="M107.77 433.83C106.61 431 104.22 432.46 102.31 432.27C103.51 434.97 105.85 433.67 107.77 433.83Z" fill="#5E656D"/>
<path d="M258.82 63.18C259.81 65.97 262.24 64.59 264.06 64.98C263.12 62.04 260.73 63.33 258.82 63.18Z" fill="#839057"/>
<path d="M86.66 446.04C86.29 444.24 87.58 441.87 84.87 440.89C85.01 442.77 83.74 445.14 86.66 446.04Z" fill="#8A755E"/>
<path d="M246.56 59.6C247.56 62.6 250.02 61.04 251.89 61.31C250.85 58.43 248.42 59.93 246.56 59.6Z" fill="#849154"/>
<path d="M241.33 57.8C242.27 60.72 244.7 59.35 246.56 59.61C245.61 56.73 243.17 58.11 241.33 57.8Z" fill="#889455"/>
<path d="M269.42 236.18C269.42 230.91 269.45 225.43 269.41 219.95C269.39 217.58 269.36 215.97 272.67 217.5C274.64 218.41 277.2 217.82 279.3 219.24C280.29 219.91 282.07 220.02 282.97 218.88C284 217.57 282.79 216.55 281.95 215.49C277.56 209.92 273.26 204.28 268.89 198.7C268.23 197.86 267.55 197.09 268.04 195.98C268.57 194.77 269.75 195.15 270.72 194.97C272.47 194.65 275.21 196.01 275.73 193.94C276.13 192.37 274.55 190.26 272.98 188.78C269.38 185.38 267.31 180.72 263.55 177.4C261.7 175.77 262.39 174.41 264.56 173.5C266.69 172.6 268.72 171.45 270.84 170.5C271.79 170.08 272.84 169.88 272.79 168.52C272.74 167.17 271.59 167.09 270.69 166.64C267.19 164.91 263.68 163.18 260.24 161.34C257.58 159.92 255.85 158.15 258.85 155.32C260.89 153.4 261.27 150.33 263.72 148.25C258.03 148 252.96 145.55 247.26 145.66C234.48 145.91 233.89 145.3 230.91 133.07C230.52 131.46 229.73 130.14 229.21 128.67C228 125.24 225.74 125.87 223.77 127.44C221.46 129.28 218.92 130.57 216.31 131.82C211.33 134.21 209.37 133.77 206.6 129.24C201.92 121.6 195.66 115.08 191.13 107.32C189.84 105.12 188.35 104.62 186.36 107.68C183.31 112.39 179.23 116.43 175.67 120.82C173.53 123.46 171.67 123.05 169.57 120.74C167.31 118.26 164.85 115.96 162.47 113.59C161.09 112.22 159.45 111.68 158.84 113.99C156.84 121.61 153.68 128.8 150.79 136.41C144.23 132.11 141.44 124.22 134.89 119.9C133.01 124.07 132.5 128.21 132.06 132.54C131.55 137.53 130.45 142.46 130.24 147.55C130.15 149.77 128.61 150.88 125.88 149.49C121.94 147.49 118.02 145.26 113.33 144.67C111.76 149.06 114.51 152.83 115.5 156.7C116.23 159.54 116.86 162.52 118 165.35C119.15 168.19 118.34 170.98 114.08 170.42C113.07 170.29 112.03 170.36 111.01 170.41C107.74 170.58 106.5 172.69 108.44 175.26C111.77 179.67 114.51 184.38 117.17 189.21C119.67 193.76 121.47 193.53 123.78 188.89C128.27 179.9 133.45 171.16 141.05 164.66C146.63 159.89 151.51 154.21 158 150.45C160.85 148.8 164.11 148.18 166.99 147.82C172.56 147.12 178.17 146.95 183.75 145.81C192.93 143.94 201.03 147.94 209.13 151.47C215.85 154.4 222.38 157.78 229.42 159.93C232.9 161 234.57 163.89 236.53 166.5C241.91 173.64 247.34 180.75 252.04 188.37C254.53 192.41 255.32 196.81 255.47 201.59C255.65 207.46 253.75 213.62 257.04 219.18C260.27 224.62 263.63 229.99 266.99 235.35C267.28 235.9 267.79 236.63 269.42 236.18Z" fill="#F48131"/>
<path d="M72.56 193.94C71.51 185.81 73.82 178.49 77.05 171.07C78.75 167.17 79.92 162.61 79.49 158.03C81.4 156.04 79.28 153 81.3 151.04C85.18 146.21 87.34 140.38 90.43 135.09C95.31 126.75 101.35 119.34 108.44 112.97C115.54 106.59 123.2 100.61 132.39 97.5C143.06 93.89 153.14 88.76 164.04 85.72C169.05 84.32 174.11 83.51 179.18 82.68C181.25 82.34 182.65 81.18 182.8 79.52C183.08 76.44 184.28 73.63 184.81 70.64C185.48 66.88 183.93 65.32 180.25 64.98C175.23 64.51 170.42 65.38 165.63 66.62C162.98 68.72 159.47 66.37 156.8 68.33C153.29 68.93 149.79 69.53 146.28 70.13C144.86 71.79 142.43 70.33 140.96 71.84L140.98 71.87C139.59 73.56 137.13 72.06 135.7 73.63V73.62C134.32 75.33 131.86 73.81 130.44 75.4C129.04 77.07 126.59 75.58 125.16 77.16L125.18 77.18C123.86 78.87 121.33 77.23 120.07 79.05C107.48 85.93 96.64 94.83 88.51 106.74C83.3 114.36 78.47 122.25 73.12 129.77C70.77 133.08 70.47 136.99 68.79 140.42C65.42 147.28 64.95 154.5 65.29 161.94C65.55 167.62 65.47 173.32 65.53 179.02C67.3 181.81 65.27 185.23 67.01 188.02C66.71 194.16 68.04 199.95 70.71 205.46C72.52 206.26 73.19 205.16 73.19 203.71C73.21 200.44 73.99 197.11 72.56 193.94Z" fill="#FEFEFD"/>
<path d="M308.2 230.2C305.43 237.06 301.4 243.2 296.75 248.87C294.51 251.6 292.93 254.77 291.92 257.81C289.9 263.89 285.77 267.58 280.81 270.96C278 272.88 275.53 275.31 272.91 277.52C272.6 281.03 274.62 280.11 276.52 279.41C288 274.08 296.73 265.01 306.64 257.53C315.02 251.2 319.56 242.58 324.24 233.79C325.97 230.54 326.32 226.85 327.01 223.47C328.7 215.2 331.92 207.1 331.08 198.4C330.81 195.59 332.72 193.24 332.69 190.35C332.55 174.95 328.64 160.84 320.97 147.3C314.64 136.12 306.8 126.04 300.02 115.22C298.58 112.92 296 111.3 293.31 110.24C292.92 110.08 292.36 109.73 292.13 109.87C288.12 112.27 286.01 116.32 283.72 120.11C282.3 122.47 284.12 124.5 285.73 126.23C291.99 132.94 295.82 141.05 299.14 149.45C301.15 150.5 299.25 153.25 301.25 154.31C303.46 160.73 306.64 166.76 308.92 173.18C309.95 176.07 308.21 177.88 308.26 180.25C308.37 185.35 309.1 190.35 309.59 195.39C310.54 205.12 310.48 214.97 309.79 224.77C308.33 226.31 309.64 228.65 308.2 230.2Z" fill="#FEFEFE"/>
<path d="M72.56 193.94C72.51 196.65 72.49 199.37 72.41 202.08C72.37 203.43 72.86 205.1 70.74 205.44C70.19 208.16 72.39 209.79 73.65 211.96C73.52 205.93 75.93 199.82 72.56 193.94Z" fill="#FAEFAA"/>
<path d="M276.52 279.4C275.25 278.91 273.15 279.99 272.91 277.51C270.24 278.06 269.16 281.05 266.52 281.72C266.29 281.78 266.18 282.75 266.24 283.28C266.27 283.52 266.98 283.95 267.15 283.85C270.2 282.21 274.28 282.73 276.52 279.4Z" fill="#F7E47E"/>
<path d="M156.81 68.34C159.77 67.86 163.25 70.02 165.64 66.63C162.7 67.17 159.22 65.01 156.81 68.34Z" fill="#F9E892"/>
<path d="M67.03 188.01C66.77 184.97 68.5101 181.6 65.5501 179.01C65.8201 182.05 63.94 185.44 67.03 188.01Z" fill="#F5E78E"/>
<path d="M81.31 151.04C77.97 152.66 79.88 155.65 79.5 158.03C82.48 156.32 80.73 153.38 81.31 151.04Z" fill="#FAEFAC"/>
<path d="M301.24 154.3C300.76 152.58 302.14 150.06 299.13 149.44C299.63 151.15 298.22 153.69 301.24 154.3Z" fill="#F8E999"/>
<path d="M120.08 79.04C121.86 78.61 124.29 79.99 125.19 77.17C123.43 77.62 120.86 75.87 120.08 79.04Z" fill="#F9ECAB"/>
<path d="M308.2 230.2C310.92 229.02 309.63 226.68 309.78 224.76C306.97 225.91 308.41 228.3 308.2 230.2Z" fill="#F7E276"/>
<path d="M125.18 77.16C127.05 76.9 129.47 78.3 130.46 75.4C128.61 75.72 126.21 74.37 125.18 77.16Z" fill="#F9EBA2"/>
<path d="M130.46 75.4C132.32 75.13 134.76 76.55 135.72 73.62C133.88 73.96 131.46 72.59 130.46 75.4Z" fill="#F9EBA3"/>
<path d="M135.72 73.63C137.59 73.38 140.02 74.79 141 71.87C139.16 72.21 136.74 70.82 135.72 73.63Z" fill="#F9ECA6"/>
<path d="M140.98 71.84C142.86 71.62 145.24 72.92 146.3 70.13C144.43 70.42 142.03 69.02 140.98 71.84Z" fill="#F9E996"/>
</g>
<defs>
<clipPath id="clip0_3_132">
<rect width="384.07" height="499.22" fill="white" transform="matrix(-1 0 0 1 384.07 0)"/>
</clipPath>
</defs>
</svg>
